<svg xmlns="http://www.w3.org/2000/svg" xmlns:xlink="http://www.w3.org/1999/xlink">

  <symbol id='icon-navmenu-collapse' viewBox="0 0 23 16">
    <path d="M18.0574 6.28571H5.02881" stroke="#105380" stroke-width="2" stroke-linecap="round" stroke-linejoin="round"/>
    <path d="M21.3143 1.94287H1.77148" stroke="#105380" stroke-width="2" stroke-linecap="round" stroke-linejoin="round"/>
    <path d="M21.3143 10.6286H1.77148" stroke="#105380" stroke-width="2" stroke-linecap="round" stroke-linejoin="round"/>
    <path d="M18.0574 14.9714H5.02881" stroke="#105380" stroke-width="2" stroke-linecap="round" stroke-linejoin="round"/>
  </symbol>
  <symbol id="icon-dashboard" viewBox="0 0 20 18">
    <path d="M0 19V6.33333L8.55313 0L17 6.33333V19H10.7844V11.4792H6.18906V19H0ZM1.59375 17.4167H4.59531V9.89583H12.3781V17.4167H15.4062V7.125L8.55313 1.97917L1.59375 7.125V17.4167Z" fill="currentColor"/>
  </symbol>
  <symbol id="icon-demo-one" viewBox="0 0 20 18">
    <path d="M6.3002 7.2C7.01221 7.2 7.70823 6.98886 8.30025 6.59329C8.89226 6.19772 9.35369 5.63548 9.62616 4.97766C9.89864 4.31985 9.96993 3.59601 9.83102 2.89768C9.69212 2.19934 9.34925 1.55789 8.84578 1.05442C8.34231 0.550948 7.70085 0.208081 7.00252 0.0691746C6.30419 -0.0697322 5.58035 0.00155981 4.92254 0.274035C4.26472 0.546511 3.70248 1.00793 3.3069 1.59995C2.91133 2.19197 2.7002 2.88799 2.7002 3.6C2.7002 4.55478 3.07948 5.47046 3.75461 6.14559C4.42974 6.82072 5.34542 7.2 6.3002 7.2ZM6.3002 1.8C6.6562 1.8 7.00421 1.90557 7.30022 2.10336C7.59623 2.30114 7.82694 2.58226 7.96318 2.91117C8.09942 3.24008 8.13506 3.602 8.06561 3.95116C7.99616 4.30033 7.82472 4.62106 7.57299 4.87279C7.32125 5.12453 7.00052 5.29596 6.65136 5.36542C6.30219 5.43487 5.94027 5.39922 5.61137 5.26298C5.28246 5.12675 5.00134 4.89604 4.80355 4.60003C4.60576 4.30402 4.5002 3.95601 4.5002 3.6C4.5002 3.12261 4.68984 2.66477 5.0274 2.32721C5.36497 1.98964 5.82281 1.8 6.3002 1.8Z" fill="currentColor"/>
    <path d="M13.4998 9.00004C14.0338 9.00004 14.5558 8.84169 14.9998 8.54501C15.4439 8.24833 15.7899 7.82664 15.9943 7.33328C16.1986 6.83992 16.2521 6.29704 16.1479 5.77329C16.0437 5.24955 15.7866 4.76845 15.409 4.39085C15.0314 4.01325 14.5503 3.7561 14.0265 3.65192C13.5028 3.54774 12.9599 3.60121 12.4666 3.80556C11.9732 4.00992 11.5515 4.35599 11.2548 4.8C10.9582 5.24401 10.7998 5.76603 10.7998 6.30004C10.7998 7.01612 11.0843 7.70288 11.5906 8.20923C12.097 8.71557 12.7837 9.00004 13.4998 9.00004ZM13.4998 5.40004C13.6778 5.40004 13.8518 5.45282 13.9998 5.55172C14.1478 5.65061 14.2632 5.79117 14.3313 5.95562C14.3994 6.12008 14.4172 6.30104 14.3825 6.47562C14.3478 6.6502 14.2621 6.81057 14.1362 6.93643C14.0103 7.0623 13.85 7.14802 13.6754 7.18274C13.5008 7.21747 13.3198 7.19965 13.1554 7.13153C12.9909 7.06341 12.8504 6.94806 12.7515 6.80005C12.6526 6.65205 12.5998 6.47804 12.5998 6.30004C12.5998 6.06134 12.6946 5.83242 12.8634 5.66364C13.0322 5.49486 13.2611 5.40004 13.4998 5.40004Z" fill="currentColor"/>
    <path d="M13.5 9.90003C12.5026 9.90113 11.5339 10.2335 10.746 10.845C9.86446 9.96695 8.74265 9.36956 7.52204 9.12821C6.30143 8.88686 5.03669 9.01234 3.8873 9.48885C2.73792 9.96535 1.75537 10.7715 1.06357 11.8057C0.371762 12.8399 0.00168317 14.0558 0 15.3C0 15.5387 0.0948211 15.7676 0.263604 15.9364C0.432387 16.1052 0.661305 16.2 0.9 16.2C1.13869 16.2 1.36761 16.1052 1.5364 15.9364C1.70518 15.7676 1.8 15.5387 1.8 15.3C1.8 14.1066 2.27411 12.962 3.11802 12.118C3.96193 11.2741 5.10653 10.8 6.3 10.8C7.49347 10.8 8.63807 11.2741 9.48198 12.118C10.3259 12.962 10.8 14.1066 10.8 15.3C10.8 15.5387 10.8948 15.7676 11.0636 15.9364C11.2324 16.1052 11.4613 16.2 11.7 16.2C11.9387 16.2 12.1676 16.1052 12.3364 15.9364C12.5052 15.7676 12.6 15.5387 12.6 15.3C12.6021 14.2456 12.3358 13.208 11.826 12.285C12.2237 11.9707 12.7019 11.7748 13.2058 11.7195C13.7097 11.6643 14.219 11.752 14.6754 11.9727C15.1317 12.1934 15.5168 12.5381 15.7864 12.9673C16.056 13.3966 16.1994 13.8931 16.2 14.4C16.2 14.6387 16.2948 14.8676 16.4636 15.0364C16.6324 15.2052 16.8613 15.3 17.1 15.3C17.3387 15.3 17.5676 15.2052 17.7364 15.0364C17.9052 14.8676 18 14.6387 18 14.4C18 13.2066 17.5259 12.062 16.682 11.218C15.8381 10.3741 14.6935 9.90003 13.5 9.90003Z" fill="currentColor"/>
  </symbol>
    <symbol id="icon-demo-two" viewBox="0 0 20 18">
    <path d="M6.3002 7.2C7.01221 7.2 7.70823 6.98886 8.30025 6.59329C8.89226 6.19772 9.35369 5.63548 9.62616 4.97766C9.89864 4.31985 9.96993 3.59601 9.83102 2.89768C9.69212 2.19934 9.34925 1.55789 8.84578 1.05442C8.34231 0.550948 7.70085 0.208081 7.00252 0.0691746C6.30419 -0.0697322 5.58035 0.00155981 4.92254 0.274035C4.26472 0.546511 3.70248 1.00793 3.3069 1.59995C2.91133 2.19197 2.7002 2.88799 2.7002 3.6C2.7002 4.55478 3.07948 5.47046 3.75461 6.14559C4.42974 6.82072 5.34542 7.2 6.3002 7.2ZM6.3002 1.8C6.6562 1.8 7.00421 1.90557 7.30022 2.10336C7.59623 2.30114 7.82694 2.58226 7.96318 2.91117C8.09942 3.24008 8.13506 3.602 8.06561 3.95116C7.99616 4.30033 7.82472 4.62106 7.57299 4.87279C7.32125 5.12453 7.00052 5.29596 6.65136 5.36542C6.30219 5.43487 5.94027 5.39922 5.61137 5.26298C5.28246 5.12675 5.00134 4.89604 4.80355 4.60003C4.60576 4.30402 4.5002 3.95601 4.5002 3.6C4.5002 3.12261 4.68984 2.66477 5.0274 2.32721C5.36497 1.98964 5.82281 1.8 6.3002 1.8Z" fill="currentColor"/>
    <path d="M13.4998 9.00004C14.0338 9.00004 14.5558 8.84169 14.9998 8.54501C15.4439 8.24833 15.7899 7.82664 15.9943 7.33328C16.1986 6.83992 16.2521 6.29704 16.1479 5.77329C16.0437 5.24955 15.7866 4.76845 15.409 4.39085C15.0314 4.01325 14.5503 3.7561 14.0265 3.65192C13.5028 3.54774 12.9599 3.60121 12.4666 3.80556C11.9732 4.00992 11.5515 4.35599 11.2548 4.8C10.9582 5.24401 10.7998 5.76603 10.7998 6.30004C10.7998 7.01612 11.0843 7.70288 11.5906 8.20923C12.097 8.71557 12.7837 9.00004 13.4998 9.00004ZM13.4998 5.40004C13.6778 5.40004 13.8518 5.45282 13.9998 5.55172C14.1478 5.65061 14.2632 5.79117 14.3313 5.95562C14.3994 6.12008 14.4172 6.30104 14.3825 6.47562C14.3478 6.6502 14.2621 6.81057 14.1362 6.93643C14.0103 7.0623 13.85 7.14802 13.6754 7.18274C13.5008 7.21747 13.3198 7.19965 13.1554 7.13153C12.9909 7.06341 12.8504 6.94806 12.7515 6.80005C12.6526 6.65205 12.5998 6.47804 12.5998 6.30004C12.5998 6.06134 12.6946 5.83242 12.8634 5.66364C13.0322 5.49486 13.2611 5.40004 13.4998 5.40004Z" fill="currentColor"/>
    <path d="M13.5 9.90003C12.5026 9.90113 11.5339 10.2335 10.746 10.845C9.86446 9.96695 8.74265 9.36956 7.52204 9.12821C6.30143 8.88686 5.03669 9.01234 3.8873 9.48885C2.73792 9.96535 1.75537 10.7715 1.06357 11.8057C0.371762 12.8399 0.00168317 14.0558 0 15.3C0 15.5387 0.0948211 15.7676 0.263604 15.9364C0.432387 16.1052 0.661305 16.2 0.9 16.2C1.13869 16.2 1.36761 16.1052 1.5364 15.9364C1.70518 15.7676 1.8 15.5387 1.8 15.3C1.8 14.1066 2.27411 12.962 3.11802 12.118C3.96193 11.2741 5.10653 10.8 6.3 10.8C7.49347 10.8 8.63807 11.2741 9.48198 12.118C10.3259 12.962 10.8 14.1066 10.8 15.3C10.8 15.5387 10.8948 15.7676 11.0636 15.9364C11.2324 16.1052 11.4613 16.2 11.7 16.2C11.9387 16.2 12.1676 16.1052 12.3364 15.9364C12.5052 15.7676 12.6 15.5387 12.6 15.3C12.6021 14.2456 12.3358 13.208 11.826 12.285C12.2237 11.9707 12.7019 11.7748 13.2058 11.7195C13.7097 11.6643 14.219 11.752 14.6754 11.9727C15.1317 12.1934 15.5168 12.5381 15.7864 12.9673C16.056 13.3966 16.1994 13.8931 16.2 14.4C16.2 14.6387 16.2948 14.8676 16.4636 15.0364C16.6324 15.2052 16.8613 15.3 17.1 15.3C17.3387 15.3 17.5676 15.2052 17.7364 15.0364C17.9052 14.8676 18 14.6387 18 14.4C18 13.2066 17.5259 12.062 16.682 11.218C15.8381 10.3741 14.6935 9.90003 13.5 9.90003Z" fill="currentColor"/>
  </symbol>
    <symbol id="icon-demo-three" viewBox="0 0 20 18">
    <path d="M6.3002 7.2C7.01221 7.2 7.70823 6.98886 8.30025 6.59329C8.89226 6.19772 9.35369 5.63548 9.62616 4.97766C9.89864 4.31985 9.96993 3.59601 9.83102 2.89768C9.69212 2.19934 9.34925 1.55789 8.84578 1.05442C8.34231 0.550948 7.70085 0.208081 7.00252 0.0691746C6.30419 -0.0697322 5.58035 0.00155981 4.92254 0.274035C4.26472 0.546511 3.70248 1.00793 3.3069 1.59995C2.91133 2.19197 2.7002 2.88799 2.7002 3.6C2.7002 4.55478 3.07948 5.47046 3.75461 6.14559C4.42974 6.82072 5.34542 7.2 6.3002 7.2ZM6.3002 1.8C6.6562 1.8 7.00421 1.90557 7.30022 2.10336C7.59623 2.30114 7.82694 2.58226 7.96318 2.91117C8.09942 3.24008 8.13506 3.602 8.06561 3.95116C7.99616 4.30033 7.82472 4.62106 7.57299 4.87279C7.32125 5.12453 7.00052 5.29596 6.65136 5.36542C6.30219 5.43487 5.94027 5.39922 5.61137 5.26298C5.28246 5.12675 5.00134 4.89604 4.80355 4.60003C4.60576 4.30402 4.5002 3.95601 4.5002 3.6C4.5002 3.12261 4.68984 2.66477 5.0274 2.32721C5.36497 1.98964 5.82281 1.8 6.3002 1.8Z" fill="currentColor"/>
    <path d="M13.4998 9.00004C14.0338 9.00004 14.5558 8.84169 14.9998 8.54501C15.4439 8.24833 15.7899 7.82664 15.9943 7.33328C16.1986 6.83992 16.2521 6.29704 16.1479 5.77329C16.0437 5.24955 15.7866 4.76845 15.409 4.39085C15.0314 4.01325 14.5503 3.7561 14.0265 3.65192C13.5028 3.54774 12.9599 3.60121 12.4666 3.80556C11.9732 4.00992 11.5515 4.35599 11.2548 4.8C10.9582 5.24401 10.7998 5.76603 10.7998 6.30004C10.7998 7.01612 11.0843 7.70288 11.5906 8.20923C12.097 8.71557 12.7837 9.00004 13.4998 9.00004ZM13.4998 5.40004C13.6778 5.40004 13.8518 5.45282 13.9998 5.55172C14.1478 5.65061 14.2632 5.79117 14.3313 5.95562C14.3994 6.12008 14.4172 6.30104 14.3825 6.47562C14.3478 6.6502 14.2621 6.81057 14.1362 6.93643C14.0103 7.0623 13.85 7.14802 13.6754 7.18274C13.5008 7.21747 13.3198 7.19965 13.1554 7.13153C12.9909 7.06341 12.8504 6.94806 12.7515 6.80005C12.6526 6.65205 12.5998 6.47804 12.5998 6.30004C12.5998 6.06134 12.6946 5.83242 12.8634 5.66364C13.0322 5.49486 13.2611 5.40004 13.4998 5.40004Z" fill="currentColor"/>
    <path d="M13.5 9.90003C12.5026 9.90113 11.5339 10.2335 10.746 10.845C9.86446 9.96695 8.74265 9.36956 7.52204 9.12821C6.30143 8.88686 5.03669 9.01234 3.8873 9.48885C2.73792 9.96535 1.75537 10.7715 1.06357 11.8057C0.371762 12.8399 0.00168317 14.0558 0 15.3C0 15.5387 0.0948211 15.7676 0.263604 15.9364C0.432387 16.1052 0.661305 16.2 0.9 16.2C1.13869 16.2 1.36761 16.1052 1.5364 15.9364C1.70518 15.7676 1.8 15.5387 1.8 15.3C1.8 14.1066 2.27411 12.962 3.11802 12.118C3.96193 11.2741 5.10653 10.8 6.3 10.8C7.49347 10.8 8.63807 11.2741 9.48198 12.118C10.3259 12.962 10.8 14.1066 10.8 15.3C10.8 15.5387 10.8948 15.7676 11.0636 15.9364C11.2324 16.1052 11.4613 16.2 11.7 16.2C11.9387 16.2 12.1676 16.1052 12.3364 15.9364C12.5052 15.7676 12.6 15.5387 12.6 15.3C12.6021 14.2456 12.3358 13.208 11.826 12.285C12.2237 11.9707 12.7019 11.7748 13.2058 11.7195C13.7097 11.6643 14.219 11.752 14.6754 11.9727C15.1317 12.1934 15.5168 12.5381 15.7864 12.9673C16.056 13.3966 16.1994 13.8931 16.2 14.4C16.2 14.6387 16.2948 14.8676 16.4636 15.0364C16.6324 15.2052 16.8613 15.3 17.1 15.3C17.3387 15.3 17.5676 15.2052 17.7364 15.0364C17.9052 14.8676 18 14.6387 18 14.4C18 13.2066 17.5259 12.062 16.682 11.218C15.8381 10.3741 14.6935 9.90003 13.5 9.90003Z" fill="currentColor"/>
  </symbol>
  <symbol id="icon-utilities" viewBox="0 0 20 18">
    <path d="M15.3472 18.7109L8.56708 11.8783C8.16413 12.0184 7.76118 12.1323 7.35823 12.2199C6.95528 12.3075 6.54357 12.3513 6.1231 12.3513C4.4237 12.3513 2.97833 11.76 1.787 10.5775C0.595666 9.39488 0 7.9539 0 6.25449C0 5.71139 0.0700782 5.18142 0.210235 4.66459C0.350392 4.14776 0.551867 3.6616 0.814661 3.20609L4.62517 7.0166L7.04288 4.75657L3.12725 0.84094C3.58276 0.578147 4.06455 0.372291 4.57261 0.223375C5.08068 0.0744584 5.59751 0 6.1231 0C7.85754 0 9.33356 0.608806 10.5512 1.82642C11.7688 3.04403 12.3776 4.52005 12.3776 6.25449C12.3776 6.67496 12.3338 7.08668 12.2462 7.48963C12.1586 7.89258 12.0447 8.29553 11.9046 8.69848L18.7109 15.4786C18.9036 15.6713 19 15.9034 19 16.175C19 16.4465 18.9036 16.6787 18.7109 16.8714L16.7137 18.7109C16.521 18.9036 16.2932 19 16.0304 19C15.7676 19 15.5399 18.9036 15.3472 18.7109ZM16.083 17.213L17.1342 16.1618L9.95989 8.98755C10.2402 8.61964 10.4504 8.18603 10.5906 7.68672C10.7308 7.18741 10.8008 6.71 10.8008 6.25449C10.8008 4.94053 10.3147 3.82803 9.34232 2.91701C8.36999 2.00599 7.26187 1.54172 6.01798 1.5242L8.6722 4.23098C8.82987 4.38866 8.90871 4.58137 8.90871 4.80913C8.90871 5.03688 8.82987 5.2296 8.6722 5.38727L5.20332 8.64592C5.04564 8.8036 4.85293 8.88243 4.62517 8.88243C4.39742 8.88243 4.2047 8.8036 4.04703 8.64592L1.49792 6.1231C1.55048 7.47211 2.02789 8.5846 2.93015 9.46058C3.83241 10.3366 4.89673 10.7745 6.1231 10.7745C6.56109 10.7745 7.02536 10.7045 7.51591 10.5643C8.00645 10.4242 8.43568 10.2139 8.8036 9.93361L16.083 17.213Z" fill="currentColor"/>
  </symbol>
  <symbol id="icon-help" viewBox="0 0 20 18">
    <path d="M9.595 15.0338C9.84833 15.0338 10.0621 14.9467 10.2362 14.7725C10.4104 14.5983 10.4975 14.3846 10.4975 14.1312C10.4975 13.8779 10.4104 13.6642 10.2362 13.49C10.0621 13.3158 9.84833 13.2288 9.595 13.2288C9.34167 13.2288 9.12792 13.3158 8.95375 13.49C8.77958 13.6642 8.6925 13.8779 8.6925 14.1312C8.6925 14.3846 8.77958 14.5983 8.95375 14.7725C9.12792 14.9467 9.34167 15.0338 9.595 15.0338ZM8.76375 11.5663H10.165C10.165 11.1546 10.2165 10.7785 10.3194 10.4381C10.4223 10.0977 10.7429 9.70583 11.2812 9.2625C11.7721 8.85083 12.1204 8.44708 12.3263 8.05125C12.5321 7.65542 12.635 7.22 12.635 6.745C12.635 5.90583 12.3619 5.23292 11.8156 4.72625C11.2694 4.21958 10.545 3.96625 9.6425 3.96625C8.86667 3.96625 8.18188 4.16021 7.58813 4.54812C6.99438 4.93604 6.56292 5.47042 6.29375 6.15125L7.5525 6.62625C7.72667 6.18292 7.98792 5.83854 8.33625 5.59312C8.68458 5.34771 9.09625 5.225 9.57125 5.225C10.1096 5.225 10.545 5.37146 10.8775 5.66438C11.21 5.95729 11.3763 6.33333 11.3763 6.7925C11.3763 7.14083 11.2733 7.46937 11.0675 7.77812C10.8617 8.08687 10.5608 8.4075 10.165 8.74C9.69 9.15167 9.33771 9.55938 9.10812 9.96313C8.87854 10.3669 8.76375 10.9013 8.76375 11.5663ZM9.5 19C8.17 19 6.92708 18.7585 5.77125 18.2756C4.61542 17.7927 3.61 17.1237 2.755 16.2687C1.9 15.4137 1.22708 14.4083 0.73625 13.2525C0.245417 12.0967 0 10.8458 0 9.5C0 8.17 0.245417 6.92708 0.73625 5.77125C1.22708 4.61542 1.9 3.61 2.755 2.755C3.61 1.9 4.61542 1.22708 5.77125 0.73625C6.92708 0.245417 8.17 0 9.5 0C10.8142 0 12.0492 0.245417 13.205 0.73625C14.3608 1.22708 15.3663 1.9 16.2213 2.755C17.0763 3.61 17.7531 4.61542 18.2519 5.77125C18.7506 6.92708 19 8.17 19 9.5C19 10.8458 18.7506 12.0967 18.2519 13.2525C17.7531 14.4083 17.0763 15.4137 16.2213 16.2687C15.3663 17.1237 14.3608 17.7927 13.205 18.2756C12.0492 18.7585 10.8142 19 9.5 19ZM9.5 17.575C11.7325 17.575 13.6365 16.7833 15.2119 15.2C16.7873 13.6167 17.575 11.7167 17.575 9.5C17.575 7.28333 16.7873 5.38333 15.2119 3.8C13.6365 2.21667 11.7325 1.425 9.5 1.425C7.23583 1.425 5.32396 2.21667 3.76438 3.8C2.20479 5.38333 1.425 7.28333 1.425 9.5C1.425 11.7167 2.20479 13.6167 3.76438 15.2C5.32396 16.7833 7.23583 17.575 9.5 17.575Z" fill="currentColor"/>
  </symbol>
    <symbol id="icon-notification" viewBox="0 0 16 20">
    <path d="M0 17V15.5H2.1V7.85C2.1 6.48333 2.5125 5.24583 3.3375 4.1375C4.1625 3.02917 5.25 2.33333 6.6 2.05V1.325C6.6 0.941667 6.7375 0.625 7.0125 0.375C7.2875 0.125 7.61667 0 8 0C8.38333 0 8.7125 0.125 8.9875 0.375C9.2625 0.625 9.4 0.941667 9.4 1.325V2.05C10.75 2.33333 11.8417 3.02917 12.675 4.1375C13.5083 5.24583 13.925 6.48333 13.925 7.85V15.5H16V17H0ZM8 20C7.46667 20 7 19.8042 6.6 19.4125C6.2 19.0208 6 18.55 6 18H10C10 18.55 9.80417 19.0208 9.4125 19.4125C9.02083 19.8042 8.55 20 8 20ZM3.6 15.5H12.425V7.85C12.425 6.6 12.0042 5.54583 11.1625 4.6875C10.3208 3.82917 9.275 3.4 8.025 3.4C6.79167 3.4 5.74583 3.82917 4.8875 4.6875C4.02917 5.54583 3.6 6.6 3.6 7.85V15.5Z" fill="currentColor"/>
  </symbol>
  <symbol id="icon-test-one" viewBox="0 0 20 18">
    <path d="M6.3002 7.2C7.01221 7.2 7.70823 6.98886 8.30025 6.59329C8.89226 6.19772 9.35369 5.63548 9.62616 4.97766C9.89864 4.31985 9.96993 3.59601 9.83102 2.89768C9.69212 2.19934 9.34925 1.55789 8.84578 1.05442C8.34231 0.550948 7.70085 0.208081 7.00252 0.0691746C6.30419 -0.0697322 5.58035 0.00155981 4.92254 0.274035C4.26472 0.546511 3.70248 1.00793 3.3069 1.59995C2.91133 2.19197 2.7002 2.88799 2.7002 3.6C2.7002 4.55478 3.07948 5.47046 3.75461 6.14559C4.42974 6.82072 5.34542 7.2 6.3002 7.2ZM6.3002 1.8C6.6562 1.8 7.00421 1.90557 7.30022 2.10336C7.59623 2.30114 7.82694 2.58226 7.96318 2.91117C8.09942 3.24008 8.13506 3.602 8.06561 3.95116C7.99616 4.30033 7.82472 4.62106 7.57299 4.87279C7.32125 5.12453 7.00052 5.29596 6.65136 5.36542C6.30219 5.43487 5.94027 5.39922 5.61137 5.26298C5.28246 5.12675 5.00134 4.89604 4.80355 4.60003C4.60576 4.30402 4.5002 3.95601 4.5002 3.6C4.5002 3.12261 4.68984 2.66477 5.0274 2.32721C5.36497 1.98964 5.82281 1.8 6.3002 1.8Z" fill="currentColor"/>
    <path d="M13.4998 9.00004C14.0338 9.00004 14.5558 8.84169 14.9998 8.54501C15.4439 8.24833 15.7899 7.82664 15.9943 7.33328C16.1986 6.83992 16.2521 6.29704 16.1479 5.77329C16.0437 5.24955 15.7866 4.76845 15.409 4.39085C15.0314 4.01325 14.5503 3.7561 14.0265 3.65192C13.5028 3.54774 12.9599 3.60121 12.4666 3.80556C11.9732 4.00992 11.5515 4.35599 11.2548 4.8C10.9582 5.24401 10.7998 5.76603 10.7998 6.30004C10.7998 7.01612 11.0843 7.70288 11.5906 8.20923C12.097 8.71557 12.7837 9.00004 13.4998 9.00004ZM13.4998 5.40004C13.6778 5.40004 13.8518 5.45282 13.9998 5.55172C14.1478 5.65061 14.2632 5.79117 14.3313 5.95562C14.3994 6.12008 14.4172 6.30104 14.3825 6.47562C14.3478 6.6502 14.2621 6.81057 14.1362 6.93643C14.0103 7.0623 13.85 7.14802 13.6754 7.18274C13.5008 7.21747 13.3198 7.19965 13.1554 7.13153C12.9909 7.06341 12.8504 6.94806 12.7515 6.80005C12.6526 6.65205 12.5998 6.47804 12.5998 6.30004C12.5998 6.06134 12.6946 5.83242 12.8634 5.66364C13.0322 5.49486 13.2611 5.40004 13.4998 5.40004Z" fill="currentColor"/>
    <path d="M13.5 9.90003C12.5026 9.90113 11.5339 10.2335 10.746 10.845C9.86446 9.96695 8.74265 9.36956 7.52204 9.12821C6.30143 8.88686 5.03669 9.01234 3.8873 9.48885C2.73792 9.96535 1.75537 10.7715 1.06357 11.8057C0.371762 12.8399 0.00168317 14.0558 0 15.3C0 15.5387 0.0948211 15.7676 0.263604 15.9364C0.432387 16.1052 0.661305 16.2 0.9 16.2C1.13869 16.2 1.36761 16.1052 1.5364 15.9364C1.70518 15.7676 1.8 15.5387 1.8 15.3C1.8 14.1066 2.27411 12.962 3.11802 12.118C3.96193 11.2741 5.10653 10.8 6.3 10.8C7.49347 10.8 8.63807 11.2741 9.48198 12.118C10.3259 12.962 10.8 14.1066 10.8 15.3C10.8 15.5387 10.8948 15.7676 11.0636 15.9364C11.2324 16.1052 11.4613 16.2 11.7 16.2C11.9387 16.2 12.1676 16.1052 12.3364 15.9364C12.5052 15.7676 12.6 15.5387 12.6 15.3C12.6021 14.2456 12.3358 13.208 11.826 12.285C12.2237 11.9707 12.7019 11.7748 13.2058 11.7195C13.7097 11.6643 14.219 11.752 14.6754 11.9727C15.1317 12.1934 15.5168 12.5381 15.7864 12.9673C16.056 13.3966 16.1994 13.8931 16.2 14.4C16.2 14.6387 16.2948 14.8676 16.4636 15.0364C16.6324 15.2052 16.8613 15.3 17.1 15.3C17.3387 15.3 17.5676 15.2052 17.7364 15.0364C17.9052 14.8676 18 14.6387 18 14.4C18 13.2066 17.5259 12.062 16.682 11.218C15.8381 10.3741 14.6935 9.90003 13.5 9.90003Z" fill="currentColor"/>
  </symbol>
    <symbol id="icon-test-two" viewBox="0 0 20 18">
    <path d="M6.3002 7.2C7.01221 7.2 7.70823 6.98886 8.30025 6.59329C8.89226 6.19772 9.35369 5.63548 9.62616 4.97766C9.89864 4.31985 9.96993 3.59601 9.83102 2.89768C9.69212 2.19934 9.34925 1.55789 8.84578 1.05442C8.34231 0.550948 7.70085 0.208081 7.00252 0.0691746C6.30419 -0.0697322 5.58035 0.00155981 4.92254 0.274035C4.26472 0.546511 3.70248 1.00793 3.3069 1.59995C2.91133 2.19197 2.7002 2.88799 2.7002 3.6C2.7002 4.55478 3.07948 5.47046 3.75461 6.14559C4.42974 6.82072 5.34542 7.2 6.3002 7.2ZM6.3002 1.8C6.6562 1.8 7.00421 1.90557 7.30022 2.10336C7.59623 2.30114 7.82694 2.58226 7.96318 2.91117C8.09942 3.24008 8.13506 3.602 8.06561 3.95116C7.99616 4.30033 7.82472 4.62106 7.57299 4.87279C7.32125 5.12453 7.00052 5.29596 6.65136 5.36542C6.30219 5.43487 5.94027 5.39922 5.61137 5.26298C5.28246 5.12675 5.00134 4.89604 4.80355 4.60003C4.60576 4.30402 4.5002 3.95601 4.5002 3.6C4.5002 3.12261 4.68984 2.66477 5.0274 2.32721C5.36497 1.98964 5.82281 1.8 6.3002 1.8Z" fill="currentColor"/>
    <path d="M13.4998 9.00004C14.0338 9.00004 14.5558 8.84169 14.9998 8.54501C15.4439 8.24833 15.7899 7.82664 15.9943 7.33328C16.1986 6.83992 16.2521 6.29704 16.1479 5.77329C16.0437 5.24955 15.7866 4.76845 15.409 4.39085C15.0314 4.01325 14.5503 3.7561 14.0265 3.65192C13.5028 3.54774 12.9599 3.60121 12.4666 3.80556C11.9732 4.00992 11.5515 4.35599 11.2548 4.8C10.9582 5.24401 10.7998 5.76603 10.7998 6.30004C10.7998 7.01612 11.0843 7.70288 11.5906 8.20923C12.097 8.71557 12.7837 9.00004 13.4998 9.00004ZM13.4998 5.40004C13.6778 5.40004 13.8518 5.45282 13.9998 5.55172C14.1478 5.65061 14.2632 5.79117 14.3313 5.95562C14.3994 6.12008 14.4172 6.30104 14.3825 6.47562C14.3478 6.6502 14.2621 6.81057 14.1362 6.93643C14.0103 7.0623 13.85 7.14802 13.6754 7.18274C13.5008 7.21747 13.3198 7.19965 13.1554 7.13153C12.9909 7.06341 12.8504 6.94806 12.7515 6.80005C12.6526 6.65205 12.5998 6.47804 12.5998 6.30004C12.5998 6.06134 12.6946 5.83242 12.8634 5.66364C13.0322 5.49486 13.2611 5.40004 13.4998 5.40004Z" fill="currentColor"/>
    <path d="M13.5 9.90003C12.5026 9.90113 11.5339 10.2335 10.746 10.845C9.86446 9.96695 8.74265 9.36956 7.52204 9.12821C6.30143 8.88686 5.03669 9.01234 3.8873 9.48885C2.73792 9.96535 1.75537 10.7715 1.06357 11.8057C0.371762 12.8399 0.00168317 14.0558 0 15.3C0 15.5387 0.0948211 15.7676 0.263604 15.9364C0.432387 16.1052 0.661305 16.2 0.9 16.2C1.13869 16.2 1.36761 16.1052 1.5364 15.9364C1.70518 15.7676 1.8 15.5387 1.8 15.3C1.8 14.1066 2.27411 12.962 3.11802 12.118C3.96193 11.2741 5.10653 10.8 6.3 10.8C7.49347 10.8 8.63807 11.2741 9.48198 12.118C10.3259 12.962 10.8 14.1066 10.8 15.3C10.8 15.5387 10.8948 15.7676 11.0636 15.9364C11.2324 16.1052 11.4613 16.2 11.7 16.2C11.9387 16.2 12.1676 16.1052 12.3364 15.9364C12.5052 15.7676 12.6 15.5387 12.6 15.3C12.6021 14.2456 12.3358 13.208 11.826 12.285C12.2237 11.9707 12.7019 11.7748 13.2058 11.7195C13.7097 11.6643 14.219 11.752 14.6754 11.9727C15.1317 12.1934 15.5168 12.5381 15.7864 12.9673C16.056 13.3966 16.1994 13.8931 16.2 14.4C16.2 14.6387 16.2948 14.8676 16.4636 15.0364C16.6324 15.2052 16.8613 15.3 17.1 15.3C17.3387 15.3 17.5676 15.2052 17.7364 15.0364C17.9052 14.8676 18 14.6387 18 14.4C18 13.2066 17.5259 12.062 16.682 11.218C15.8381 10.3741 14.6935 9.90003 13.5 9.90003Z" fill="currentColor"/>
  </symbol>
    <symbol id="icon-test-three" viewBox="0 0 20 18">
    <path d="M6.3002 7.2C7.01221 7.2 7.70823 6.98886 8.30025 6.59329C8.89226 6.19772 9.35369 5.63548 9.62616 4.97766C9.89864 4.31985 9.96993 3.59601 9.83102 2.89768C9.69212 2.19934 9.34925 1.55789 8.84578 1.05442C8.34231 0.550948 7.70085 0.208081 7.00252 0.0691746C6.30419 -0.0697322 5.58035 0.00155981 4.92254 0.274035C4.26472 0.546511 3.70248 1.00793 3.3069 1.59995C2.91133 2.19197 2.7002 2.88799 2.7002 3.6C2.7002 4.55478 3.07948 5.47046 3.75461 6.14559C4.42974 6.82072 5.34542 7.2 6.3002 7.2ZM6.3002 1.8C6.6562 1.8 7.00421 1.90557 7.30022 2.10336C7.59623 2.30114 7.82694 2.58226 7.96318 2.91117C8.09942 3.24008 8.13506 3.602 8.06561 3.95116C7.99616 4.30033 7.82472 4.62106 7.57299 4.87279C7.32125 5.12453 7.00052 5.29596 6.65136 5.36542C6.30219 5.43487 5.94027 5.39922 5.61137 5.26298C5.28246 5.12675 5.00134 4.89604 4.80355 4.60003C4.60576 4.30402 4.5002 3.95601 4.5002 3.6C4.5002 3.12261 4.68984 2.66477 5.0274 2.32721C5.36497 1.98964 5.82281 1.8 6.3002 1.8Z" fill="currentColor"/>
    <path d="M13.4998 9.00004C14.0338 9.00004 14.5558 8.84169 14.9998 8.54501C15.4439 8.24833 15.7899 7.82664 15.9943 7.33328C16.1986 6.83992 16.2521 6.29704 16.1479 5.77329C16.0437 5.24955 15.7866 4.76845 15.409 4.39085C15.0314 4.01325 14.5503 3.7561 14.0265 3.65192C13.5028 3.54774 12.9599 3.60121 12.4666 3.80556C11.9732 4.00992 11.5515 4.35599 11.2548 4.8C10.9582 5.24401 10.7998 5.76603 10.7998 6.30004C10.7998 7.01612 11.0843 7.70288 11.5906 8.20923C12.097 8.71557 12.7837 9.00004 13.4998 9.00004ZM13.4998 5.40004C13.6778 5.40004 13.8518 5.45282 13.9998 5.55172C14.1478 5.65061 14.2632 5.79117 14.3313 5.95562C14.3994 6.12008 14.4172 6.30104 14.3825 6.47562C14.3478 6.6502 14.2621 6.81057 14.1362 6.93643C14.0103 7.0623 13.85 7.14802 13.6754 7.18274C13.5008 7.21747 13.3198 7.19965 13.1554 7.13153C12.9909 7.06341 12.8504 6.94806 12.7515 6.80005C12.6526 6.65205 12.5998 6.47804 12.5998 6.30004C12.5998 6.06134 12.6946 5.83242 12.8634 5.66364C13.0322 5.49486 13.2611 5.40004 13.4998 5.40004Z" fill="currentColor"/>
    <path d="M13.5 9.90003C12.5026 9.90113 11.5339 10.2335 10.746 10.845C9.86446 9.96695 8.74265 9.36956 7.52204 9.12821C6.30143 8.88686 5.03669 9.01234 3.8873 9.48885C2.73792 9.96535 1.75537 10.7715 1.06357 11.8057C0.371762 12.8399 0.00168317 14.0558 0 15.3C0 15.5387 0.0948211 15.7676 0.263604 15.9364C0.432387 16.1052 0.661305 16.2 0.9 16.2C1.13869 16.2 1.36761 16.1052 1.5364 15.9364C1.70518 15.7676 1.8 15.5387 1.8 15.3C1.8 14.1066 2.27411 12.962 3.11802 12.118C3.96193 11.2741 5.10653 10.8 6.3 10.8C7.49347 10.8 8.63807 11.2741 9.48198 12.118C10.3259 12.962 10.8 14.1066 10.8 15.3C10.8 15.5387 10.8948 15.7676 11.0636 15.9364C11.2324 16.1052 11.4613 16.2 11.7 16.2C11.9387 16.2 12.1676 16.1052 12.3364 15.9364C12.5052 15.7676 12.6 15.5387 12.6 15.3C12.6021 14.2456 12.3358 13.208 11.826 12.285C12.2237 11.9707 12.7019 11.7748 13.2058 11.7195C13.7097 11.6643 14.219 11.752 14.6754 11.9727C15.1317 12.1934 15.5168 12.5381 15.7864 12.9673C16.056 13.3966 16.1994 13.8931 16.2 14.4C16.2 14.6387 16.2948 14.8676 16.4636 15.0364C16.6324 15.2052 16.8613 15.3 17.1 15.3C17.3387 15.3 17.5676 15.2052 17.7364 15.0364C17.9052 14.8676 18 14.6387 18 14.4C18 13.2066 17.5259 12.062 16.682 11.218C15.8381 10.3741 14.6935 9.90003 13.5 9.90003Z" fill="currentColor"/>
  </symbol>
    <symbol id="icon-test-four" viewBox="0 0 20 18">
    <path d="M6.3002 7.2C7.01221 7.2 7.70823 6.98886 8.30025 6.59329C8.89226 6.19772 9.35369 5.63548 9.62616 4.97766C9.89864 4.31985 9.96993 3.59601 9.83102 2.89768C9.69212 2.19934 9.34925 1.55789 8.84578 1.05442C8.34231 0.550948 7.70085 0.208081 7.00252 0.0691746C6.30419 -0.0697322 5.58035 0.00155981 4.92254 0.274035C4.26472 0.546511 3.70248 1.00793 3.3069 1.59995C2.91133 2.19197 2.7002 2.88799 2.7002 3.6C2.7002 4.55478 3.07948 5.47046 3.75461 6.14559C4.42974 6.82072 5.34542 7.2 6.3002 7.2ZM6.3002 1.8C6.6562 1.8 7.00421 1.90557 7.30022 2.10336C7.59623 2.30114 7.82694 2.58226 7.96318 2.91117C8.09942 3.24008 8.13506 3.602 8.06561 3.95116C7.99616 4.30033 7.82472 4.62106 7.57299 4.87279C7.32125 5.12453 7.00052 5.29596 6.65136 5.36542C6.30219 5.43487 5.94027 5.39922 5.61137 5.26298C5.28246 5.12675 5.00134 4.89604 4.80355 4.60003C4.60576 4.30402 4.5002 3.95601 4.5002 3.6C4.5002 3.12261 4.68984 2.66477 5.0274 2.32721C5.36497 1.98964 5.82281 1.8 6.3002 1.8Z" fill="currentColor"/>
    <path d="M13.4998 9.00004C14.0338 9.00004 14.5558 8.84169 14.9998 8.54501C15.4439 8.24833 15.7899 7.82664 15.9943 7.33328C16.1986 6.83992 16.2521 6.29704 16.1479 5.77329C16.0437 5.24955 15.7866 4.76845 15.409 4.39085C15.0314 4.01325 14.5503 3.7561 14.0265 3.65192C13.5028 3.54774 12.9599 3.60121 12.4666 3.80556C11.9732 4.00992 11.5515 4.35599 11.2548 4.8C10.9582 5.24401 10.7998 5.76603 10.7998 6.30004C10.7998 7.01612 11.0843 7.70288 11.5906 8.20923C12.097 8.71557 12.7837 9.00004 13.4998 9.00004ZM13.4998 5.40004C13.6778 5.40004 13.8518 5.45282 13.9998 5.55172C14.1478 5.65061 14.2632 5.79117 14.3313 5.95562C14.3994 6.12008 14.4172 6.30104 14.3825 6.47562C14.3478 6.6502 14.2621 6.81057 14.1362 6.93643C14.0103 7.0623 13.85 7.14802 13.6754 7.18274C13.5008 7.21747 13.3198 7.19965 13.1554 7.13153C12.9909 7.06341 12.8504 6.94806 12.7515 6.80005C12.6526 6.65205 12.5998 6.47804 12.5998 6.30004C12.5998 6.06134 12.6946 5.83242 12.8634 5.66364C13.0322 5.49486 13.2611 5.40004 13.4998 5.40004Z" fill="currentColor"/>
    <path d="M13.5 9.90003C12.5026 9.90113 11.5339 10.2335 10.746 10.845C9.86446 9.96695 8.74265 9.36956 7.52204 9.12821C6.30143 8.88686 5.03669 9.01234 3.8873 9.48885C2.73792 9.96535 1.75537 10.7715 1.06357 11.8057C0.371762 12.8399 0.00168317 14.0558 0 15.3C0 15.5387 0.0948211 15.7676 0.263604 15.9364C0.432387 16.1052 0.661305 16.2 0.9 16.2C1.13869 16.2 1.36761 16.1052 1.5364 15.9364C1.70518 15.7676 1.8 15.5387 1.8 15.3C1.8 14.1066 2.27411 12.962 3.11802 12.118C3.96193 11.2741 5.10653 10.8 6.3 10.8C7.49347 10.8 8.63807 11.2741 9.48198 12.118C10.3259 12.962 10.8 14.1066 10.8 15.3C10.8 15.5387 10.8948 15.7676 11.0636 15.9364C11.2324 16.1052 11.4613 16.2 11.7 16.2C11.9387 16.2 12.1676 16.1052 12.3364 15.9364C12.5052 15.7676 12.6 15.5387 12.6 15.3C12.6021 14.2456 12.3358 13.208 11.826 12.285C12.2237 11.9707 12.7019 11.7748 13.2058 11.7195C13.7097 11.6643 14.219 11.752 14.6754 11.9727C15.1317 12.1934 15.5168 12.5381 15.7864 12.9673C16.056 13.3966 16.1994 13.8931 16.2 14.4C16.2 14.6387 16.2948 14.8676 16.4636 15.0364C16.6324 15.2052 16.8613 15.3 17.1 15.3C17.3387 15.3 17.5676 15.2052 17.7364 15.0364C17.9052 14.8676 18 14.6387 18 14.4C18 13.2066 17.5259 12.062 16.682 11.218C15.8381 10.3741 14.6935 9.90003 13.5 9.90003Z" fill="currentColor"/>
  </symbol>
  <symbol id="icon-test-five" viewBox="0 0 20 18">
    <path d="M6.3002 7.2C7.01221 7.2 7.70823 6.98886 8.30025 6.59329C8.89226 6.19772 9.35369 5.63548 9.62616 4.97766C9.89864 4.31985 9.96993 3.59601 9.83102 2.89768C9.69212 2.19934 9.34925 1.55789 8.84578 1.05442C8.34231 0.550948 7.70085 0.208081 7.00252 0.0691746C6.30419 -0.0697322 5.58035 0.00155981 4.92254 0.274035C4.26472 0.546511 3.70248 1.00793 3.3069 1.59995C2.91133 2.19197 2.7002 2.88799 2.7002 3.6C2.7002 4.55478 3.07948 5.47046 3.75461 6.14559C4.42974 6.82072 5.34542 7.2 6.3002 7.2ZM6.3002 1.8C6.6562 1.8 7.00421 1.90557 7.30022 2.10336C7.59623 2.30114 7.82694 2.58226 7.96318 2.91117C8.09942 3.24008 8.13506 3.602 8.06561 3.95116C7.99616 4.30033 7.82472 4.62106 7.57299 4.87279C7.32125 5.12453 7.00052 5.29596 6.65136 5.36542C6.30219 5.43487 5.94027 5.39922 5.61137 5.26298C5.28246 5.12675 5.00134 4.89604 4.80355 4.60003C4.60576 4.30402 4.5002 3.95601 4.5002 3.6C4.5002 3.12261 4.68984 2.66477 5.0274 2.32721C5.36497 1.98964 5.82281 1.8 6.3002 1.8Z" fill="currentColor"/>
    <path d="M13.4998 9.00004C14.0338 9.00004 14.5558 8.84169 14.9998 8.54501C15.4439 8.24833 15.7899 7.82664 15.9943 7.33328C16.1986 6.83992 16.2521 6.29704 16.1479 5.77329C16.0437 5.24955 15.7866 4.76845 15.409 4.39085C15.0314 4.01325 14.5503 3.7561 14.0265 3.65192C13.5028 3.54774 12.9599 3.60121 12.4666 3.80556C11.9732 4.00992 11.5515 4.35599 11.2548 4.8C10.9582 5.24401 10.7998 5.76603 10.7998 6.30004C10.7998 7.01612 11.0843 7.70288 11.5906 8.20923C12.097 8.71557 12.7837 9.00004 13.4998 9.00004ZM13.4998 5.40004C13.6778 5.40004 13.8518 5.45282 13.9998 5.55172C14.1478 5.65061 14.2632 5.79117 14.3313 5.95562C14.3994 6.12008 14.4172 6.30104 14.3825 6.47562C14.3478 6.6502 14.2621 6.81057 14.1362 6.93643C14.0103 7.0623 13.85 7.14802 13.6754 7.18274C13.5008 7.21747 13.3198 7.19965 13.1554 7.13153C12.9909 7.06341 12.8504 6.94806 12.7515 6.80005C12.6526 6.65205 12.5998 6.47804 12.5998 6.30004C12.5998 6.06134 12.6946 5.83242 12.8634 5.66364C13.0322 5.49486 13.2611 5.40004 13.4998 5.40004Z" fill="currentColor"/>
    <path d="M13.5 9.90003C12.5026 9.90113 11.5339 10.2335 10.746 10.845C9.86446 9.96695 8.74265 9.36956 7.52204 9.12821C6.30143 8.88686 5.03669 9.01234 3.8873 9.48885C2.73792 9.96535 1.75537 10.7715 1.06357 11.8057C0.371762 12.8399 0.00168317 14.0558 0 15.3C0 15.5387 0.0948211 15.7676 0.263604 15.9364C0.432387 16.1052 0.661305 16.2 0.9 16.2C1.13869 16.2 1.36761 16.1052 1.5364 15.9364C1.70518 15.7676 1.8 15.5387 1.8 15.3C1.8 14.1066 2.27411 12.962 3.11802 12.118C3.96193 11.2741 5.10653 10.8 6.3 10.8C7.49347 10.8 8.63807 11.2741 9.48198 12.118C10.3259 12.962 10.8 14.1066 10.8 15.3C10.8 15.5387 10.8948 15.7676 11.0636 15.9364C11.2324 16.1052 11.4613 16.2 11.7 16.2C11.9387 16.2 12.1676 16.1052 12.3364 15.9364C12.5052 15.7676 12.6 15.5387 12.6 15.3C12.6021 14.2456 12.3358 13.208 11.826 12.285C12.2237 11.9707 12.7019 11.7748 13.2058 11.7195C13.7097 11.6643 14.219 11.752 14.6754 11.9727C15.1317 12.1934 15.5168 12.5381 15.7864 12.9673C16.056 13.3966 16.1994 13.8931 16.2 14.4C16.2 14.6387 16.2948 14.8676 16.4636 15.0364C16.6324 15.2052 16.8613 15.3 17.1 15.3C17.3387 15.3 17.5676 15.2052 17.7364 15.0364C17.9052 14.8676 18 14.6387 18 14.4C18 13.2066 17.5259 12.062 16.682 11.218C15.8381 10.3741 14.6935 9.90003 13.5 9.90003Z" fill="currentColor"/>
  </symbol>
  <symbol id="icon-moon" viewBox="0 0 24 24">
    <path d="M11.993,3a9.326,9.326,0,0,0-1.138,4.477,8.8,8.8,0,0,0,8.569,9.015c.2,0,.385-.017.576-.03A8.5,8.5,0,0,1,12.569,21,8.8,8.8,0,0,1,4,11.985,8.83,8.83,0,0,1,11.993,3Z" fill="currentColor"/>
  </symbol>
  <symbol id="icon-sun" viewBox="0 0 24 24">
    <path d="M7,12a5,5,0,1,1,5,5A5,5,0,0,1,7,12Zm5-7a1,1,0,0,0,1-1V3a1,1,0,0,0-2,0V4A1,1,0,0,0,12,5ZM11,20v1a1,1,0,0,0,2,0V20a1,1,0,0,0-2,0Zm10-9H20a1,1,0,0,0,0,2h1a1,1,0,0,0,0-2ZM3,13H4a1,1,0,0,0,0-2H3a1,1,0,0,0,0,2ZM17.657,7.343a1,1,0,0,0,.707-.293l.707-.707a1,1,0,1,0-1.414-1.414l-.707.707a1,1,0,0,0,.707,1.707ZM5.636,16.95l-.707.707a1,1,0,1,0,1.414,1.414l.707-.707A1,1,0,0,0,5.636,16.95Zm11.314,0a1,1,0,0,0,0,1.414l.707.707a1,1,0,0,0,1.414-1.414l-.707-.707A1,1,0,0,0,16.95,16.95ZM5.636,7.05A1,1,0,0,0,7.05,5.636l-.707-.707A1,1,0,0,0,4.929,6.343Z" fill="currentColor"/>
  </symbol>
</svg>
